<?xml version="1.0" encoding="utf-8"?>
<!-- Generator: Adobe Illustrator 27.9.0, SVG Export Plug-In . SVG Version: 6.00 Build 0)  -->
<svg version="1.1" id="Layer_1" xmlns="http://www.w3.org/2000/svg" xmlns:xlink="http://www.w3.org/1999/xlink" x="0px" y="0px"
	 viewBox="0 0 194 59" style="enable-background:new 0 0 194 59;" xml:space="preserve">
<style type="text/css">
	.st0{fill:#E21936;}
	.st1{fill:#53489D;}
</style>
<path class="st0" d="M21.4,26.4h1.1l3,7.6h-1.1l-0.8-2.3h-3.2l-0.9,2.3h-1L21.4,26.4z M23.2,30.9l-1.3-3.6h0l-1.3,3.6H23.2z"/>
<path class="st0" d="M26.9,26.4h5.3v0.9H28v2.4h4v0.9h-4v2.6h4.3v0.9h-5.3V26.4z"/>
<path class="st0" d="M38.6,28.7c-0.1-1.1-0.8-1.6-1.9-1.6c-0.9,0-1.7,0.3-1.7,1.3c0,1.9,4.9,0.6,4.9,3.6c0,1.6-1.6,2.3-3,2.3
	c-1.7,0-3.1-0.8-3.1-2.7h1c0,1.3,1.1,1.8,2.2,1.8c0.9,0,1.9-0.3,1.9-1.4c0-2.1-4.9-0.7-4.9-3.5c0-1.5,1.4-2.2,2.8-2.2
	c1.6,0,2.8,0.7,2.8,2.4H38.6z"/>
<path class="st0" d="M46.2,28.7c-0.1-1.1-0.8-1.6-1.9-1.6c-0.9,0-1.7,0.3-1.7,1.3c0,1.9,4.9,0.6,4.9,3.6c0,1.6-1.6,2.3-3,2.3
	c-1.7,0-3.1-0.8-3.1-2.7h1c0,1.3,1.1,1.8,2.2,1.8c0.9,0,1.9-0.3,1.9-1.4c0-2.1-4.9-0.7-4.9-3.5c0-1.5,1.4-2.2,2.8-2.2
	c1.6,0,2.8,0.7,2.8,2.4H46.2z"/>
<path class="st0" d="M49.5,26.4h5.3v0.9h-4.2v2.4h4v0.9h-4v2.6h4.3v0.9h-5.3V26.4z"/>
<path class="st0" d="M58.8,26.4h1.1l3,7.6h-1.1l-0.8-2.3h-3.2l-0.9,2.3h-1L58.8,26.4z M60.6,30.9l-1.3-3.6h0L58,30.9H60.6z"/>
<path class="st0" d="M64.4,26.4h1v6.8h4v0.9h-5V26.4z"/>
<path class="st1" d="M76.4,27.3h-2.5v-0.9H80v0.9h-2.5v6.8h-1V27.3z"/>
<path class="st1" d="M84.5,26.3c2.4,0,3.6,1.9,3.6,4c0,2.1-1.2,4-3.6,4c-2.4,0-3.6-1.9-3.6-4C80.8,28.2,82,26.3,84.5,26.3z
	 M84.5,33.4c1.9,0,2.6-1.6,2.6-3.1c0-1.5-0.8-3.1-2.6-3.1c-1.9,0-2.6,1.6-2.6,3.1C81.8,31.8,82.6,33.4,84.5,33.4z"/>
<path class="st1" d="M90.1,26.4h3.6c1.4,0,2.3,0.8,2.3,2c0,0.9-0.4,1.7-1.3,1.9v0c0.9,0.2,1.1,0.8,1.1,1.6c0.1,0.7,0,1.6,0.4,2.1
	h-1.1c-0.3-0.3-0.1-1.1-0.3-1.9c-0.1-0.7-0.3-1.4-1.3-1.4h-2.5v3.3h-1V26.4z M93.2,30c0.9,0,1.8-0.2,1.8-1.4c0-0.8-0.4-1.3-1.4-1.3
	h-2.5V30H93.2z"/>
<path class="st1" d="M98.2,26.4h1v7.6h-1V26.4z"/>
<path class="st1" d="M106,28.7c-0.1-1.1-0.8-1.6-1.9-1.6c-0.9,0-1.7,0.3-1.7,1.3c0,1.9,4.9,0.6,4.9,3.6c0,1.6-1.6,2.3-3,2.3
	c-1.7,0-3.1-0.8-3.1-2.7h1c0,1.3,1.1,1.8,2.2,1.8c0.9,0,1.9-0.3,1.9-1.4c0-2.1-4.9-0.7-4.9-3.5c0-1.5,1.4-2.2,2.8-2.2
	c1.6,0,2.8,0.7,2.8,2.4H106z"/>
<path class="st1" d="M109.3,26.4h1v3.3h4v-3.3h1v7.6h-1v-3.5h-4v3.5h-1V26.4z"/>
<path class="st1" d="M117.7,26.4h1v7.6h-1V26.4z"/>
<path class="st1" d="M121.2,26.4h1.4l2.4,6.4l2.4-6.4h1.4v7.6h-1v-6.3h0l-2.4,6.3h-0.9l-2.4-6.3h0v6.3h-1V26.4z"/>
<path class="st1" d="M133.3,26.4h1.1l3,7.6h-1.1l-0.8-2.3h-3.2l-0.9,2.3h-1L133.3,26.4z M135.1,30.9l-1.3-3.6h0l-1.3,3.6H135.1z"/>
<path class="st0" d="M141.9,31.6h1v0.3c0,0.9,0.2,1.5,1.2,1.5c0.9,0,1.2-0.5,1.2-1.4v-5.6h1v5.7c0,1-0.5,2.1-2.3,2.1
	c-1.4,0-2.2-0.8-2.2-2.2V31.6z"/>
<path class="st0" d="M150.8,26.4h1.1l3,7.6h-1.1l-0.8-2.3h-3.2l-0.9,2.3h-1L150.8,26.4z M152.6,30.9l-1.3-3.6h0l-1.3,3.6H152.6z"/>
<path class="st0" d="M156.4,26.4h3.3c1.5,0,2.3,0.8,2.3,2.3c0,1.4-0.8,2.3-2.3,2.3h-2.3v3.1h-1V26.4z M157.4,30.1h2
	c1.2,0,1.7-0.5,1.7-1.4c0-0.9-0.5-1.4-1.7-1.4h-2V30.1z"/>
<path class="st0" d="M165.3,26.4h1.1l3,7.6h-1.1l-0.8-2.3h-3.2l-0.9,2.3h-1L165.3,26.4z M167.1,30.9l-1.3-3.6h0l-1.3,3.6H167.1z"/>
<path class="st0" d="M170.9,26.4h1.1l4,6.2h0v-6.2h1v7.6h-1.1l-4-6.1h0v6.1h-1V26.4z"/>
</svg>
